<?xml version="1.0" encoding="UTF-8"?><svg xmlns="http://www.w3.org/2000/svg" viewBox="0 0 1632.05 582.64"><defs><style>.d{fill:#0026c9;}.e{fill:#f0f0f0;}</style></defs><g id="a"/><g id="b"><g id="c"><g><rect class="d" width="1632.05" height="582.64"/><g><g><path class="e" d="M260.77,229.6h22.26v21.13h-22.26v-21.13Zm0,34.33h22.26v87.15h-22.26v-87.15Z"/><path class="e" d="M306.42,263.94h15.85l1.89,6.41c7.55-5.28,16.79-8.3,26.41-8.3,20.56,0,29.05,13.21,29.05,30.18v58.86h-22.26v-56.03c0-8.49-3.4-13.39-12.64-13.39-5.85,0-11.88,2.08-16.03,4.15v65.27h-22.26v-87.15Z"/><path class="e" d="M486.57,262.05c7.36,0,14.34,.94,21.88,2.64l-2.45,18.86c-6.04-.94-13.39-1.89-19.05-1.89-15.85,0-20.56,6.41-20.56,26.03,0,17.17,3.58,25.66,17.54,25.66,7.55,0,16.98-2.45,23.02-4.34l5.47,18.3c-8.68,3.4-18.87,5.66-29.24,5.66-27.17,0-39.43-15.47-39.43-45.65s11.51-45.27,42.82-45.27Z"/><path class="e" d="M561.27,262.05c29.24,0,39.8,17.54,39.8,45.46s-10.56,45.46-39.8,45.46-39.8-17.54-39.8-45.46,10.56-45.46,39.8-45.46Zm0,71.31c15.28,0,17.17-11.51,17.17-25.84s-1.89-25.84-17.17-25.84-17.17,11.51-17.17,25.84,1.89,25.84,17.17,25.84Z"/><path class="e" d="M618.8,263.94h15.85l1.89,6.41c7.55-5.28,16.79-8.3,26.41-8.3,20.56,0,29.05,13.21,29.05,30.18v58.86h-22.26v-56.03c0-8.49-3.4-13.39-12.64-13.39-5.85,0-11.88,2.08-16.03,4.15v65.27h-22.26v-87.15Z"/><path class="e" d="M711.23,330.72c7.17,1.32,16.98,2.64,24.9,2.64,9.43,0,15.47-1.89,15.47-6.98s-7.36-6.41-19.81-10.75c-14.53-5.09-23.77-11.7-23.77-26.22,0-17.36,13.21-27.35,36.79-27.35,7.92,0,17.17,1.13,24.71,2.64l-2.64,19.24c-6.6-1.13-15.47-2.26-22.26-2.26-9.43,0-13.96,2.26-13.96,6.41,0,5.66,8.49,6.41,19.62,10.56,15.28,5.66,23.96,12.07,23.96,26.6,0,17.17-11.88,27.73-38.67,27.73-8.87,0-19.43-1.13-27.17-2.83l2.83-19.43Z"/><path class="e" d="M793.86,282.42h-13.21v-16.6l14.15-.75,1.51-25.28h19.81v24.15h21.7v18.49h-21.7v42.82c0,6.23,2.08,8.11,6.98,8.11,3.96,0,8.87-1.13,12.64-2.45l4.72,17.73c-5.66,2.26-13.21,4.15-21.13,4.15-15.09,0-25.47-7.92-25.47-26.22v-44.14Z"/><path class="e" d="M856.3,263.94h15.85l2.45,9.81c7.17-7.92,15.28-11.7,24.9-11.7,3.02,0,7.17,.38,10.19,.94l-1.51,20.37c-3.77-.57-6.79-.75-9.43-.75-9.43,0-15.28,2.45-20.18,7.17v61.31h-22.26v-87.15Z"/><path class="e" d="M921.57,263.94h22.26v56.03c0,8.49,3.4,13.39,12.64,13.39,5.85,0,11.88-2.08,16.03-4.15v-65.27h22.26v87.15h-15.85l-1.89-6.41c-7.36,5.28-16.79,8.3-26.41,8.3-20.56,0-29.05-13.21-29.05-30.18v-58.86Z"/><path class="e" d="M1055.31,262.05c7.36,0,14.34,.94,21.88,2.64l-2.45,18.86c-6.04-.94-13.39-1.89-19.05-1.89-15.85,0-20.56,6.41-20.56,26.03,0,17.17,3.58,25.66,17.54,25.66,7.55,0,16.98-2.45,23.02-4.34l5.47,18.3c-8.68,3.4-18.87,5.66-29.24,5.66-27.17,0-39.43-15.47-39.43-45.65s11.51-45.27,42.82-45.27Z"/><path class="e" d="M1099.26,282.42h-13.21v-16.6l14.15-.75,1.51-25.28h19.81v24.15h21.69v18.49h-21.69v42.82c0,6.23,2.08,8.11,6.98,8.11,3.96,0,8.87-1.13,12.64-2.45l4.72,17.73c-5.66,2.26-13.21,4.15-21.13,4.15-15.09,0-25.47-7.92-25.47-26.22v-44.14Z"/><path class="e" d="M1161.7,229.6h22.26v21.13h-22.26v-21.13Zm0,34.33h22.26v87.15h-22.26v-87.15Z"/><path class="e" d="M1241.49,262.05c29.24,0,39.8,17.54,39.8,45.46s-10.56,45.46-39.8,45.46-39.8-17.54-39.8-45.46,10.56-45.46,39.8-45.46Zm0,71.31c15.28,0,17.17-11.51,17.17-25.84s-1.89-25.84-17.17-25.84-17.17,11.51-17.17,25.84,1.89,25.84,17.17,25.84Z"/><path class="e" d="M1299.03,263.94h15.85l1.89,6.41c7.55-5.28,16.79-8.3,26.41-8.3,20.56,0,29.05,13.21,29.05,30.18v58.86h-22.26v-56.03c0-8.49-3.4-13.39-12.64-13.39-5.85,0-11.88,2.08-16.03,4.15v65.27h-22.26v-87.15Z"/></g><g><g><path class="e" d="M83.97,301.73l86.78-38.11v21.13l-55.08,23.2v.75l55.08,23.2v21.13l-86.78-38.11v-13.21Z"/><path class="e" d="M85.02,331.91l55.08-23.2v-.75l-55.08-23.2v-21.13l86.78,38.11v13.21l-86.78,38.11v-21.13Z"/></g><g><path class="e" d="M1460.25,301.73l86.78-38.11v21.13l-55.08,23.2v.75l55.08,23.2v21.13l-86.78-38.11v-13.21Z"/><path class="e" d="M1461.3,331.91l55.08-23.2v-.75l-55.08-23.2v-21.13l86.78,38.11v13.21l-86.78,38.11v-21.13Z"/></g></g></g></g></g></g></svg>