<?xml version="1.0" encoding="UTF-8"?><svg xmlns="http://www.w3.org/2000/svg" viewBox="0 0 257.14 257.14"><defs><style>.d{fill:#0026c9;}.e{fill:#f0f0f0;}</style></defs><g id="a"/><g id="b"><g id="c"><g><rect class="d" width="257.14" height="257.14"/><path class="e" d="M93.66,50.91c-2.55,3.64-3.99,8.08-3.99,13.48,0,23.76,26.22,28.75,63.34,41.25,37.09,12.52,75.57,30.42,75.57,79.6v43.33H28.57v-15.15c24.6,3.37,64.96,7.65,83.7,7.65,.92,0,1.85,0,2.75-.02,.95,.02,1.83,.02,2.69,.02,19.52,0,38-3.58,45.81-14.9,2.53-3.64,3.95-8.06,3.95-13.42,0-23.76-26.22-28.75-63.34-41.25-37.09-12.52-75.57-30.42-75.57-79.6V28.57H228.57v15.15c-24.6-3.37-64.96-7.65-83.7-7.65-.92,0-1.85,0-2.75,.02-.95-.02-1.83-.02-2.69-.02-19.48,0-37.92,3.56-45.77,14.84Z"/></g></g></g></svg>