<?xml version="1.0" encoding="UTF-8"?><svg xmlns="http://www.w3.org/2000/svg" viewBox="0 0 163.36 326.73"><g id="a"/><g id="b"><g id="c"><path d="M90.55,6.13c.7,0,1.43,0,2.2,.02,.74-.02,1.49-.02,2.25-.02,15.31,0,48.28,3.49,68.37,6.25V0H0V35.39c0,40.17,31.42,54.8,61.72,65.02,30.32,10.21,51.74,14.29,51.74,33.69,0,4.38-1.16,7.99-3.22,10.96-6.38,9.25-21.47,12.17-37.42,12.17-.7,0-1.43,0-2.2-.02-.74,.02-1.49,.02-2.25,.02-15.31,0-48.28-3.49-68.37-6.25v175.74H7.13c0-83.65,33.39-151.45,74.55-151.45s74.55,67.8,74.55,151.45h7.13V127.98c0-40.17-31.42-54.8-61.72-65.02-30.32-10.21-51.74-14.29-51.74-33.69,0-4.42,1.17-8.04,3.26-11.01,6.41-9.22,21.47-12.12,37.38-12.12Z"/></g></g></svg>